<svg width="1112" height="2107" viewBox="0 0 1112 2107" fill="none" xmlns="http://www.w3.org/2000/svg">
<path d="M740.583 271.468L873.596 368.761V1050.83L883.801 1055.59C958.982 1090.63 1025.32 1139.62 1080.77 1200.85L1111.04 1234.19V0L873.596 174.175L740.583 271.468Z" fill="#000000"/>
<path d="M-3.05176e-05 814.403L133.012 911.696V1233.85L163.289 1200.51C219.079 1139.28 285.415 1090.63 360.256 1055.25L370.462 1050.49V542.936L133.012 717.11L-3.05176e-05 814.403Z" fill="#000000"/>
<path d="M740.583 1143.02V271.468L503.134 445.643L370.462 542.936L503.134 640.229V1143.02C287.797 1197.11 132.672 1394.42 132.672 1617.58C132.672 1887.35 352.092 2106.77 621.858 2106.77C891.625 2106.77 1111.04 1887.35 1111.04 1617.58C1111.04 1394.42 956.261 1197.11 740.583 1143.02ZM621.858 1868.98C483.063 1868.98 370.121 1756.04 370.121 1617.24C370.121 1478.44 483.063 1365.5 621.858 1365.5C760.654 1365.5 873.595 1478.44 873.595 1617.24C873.595 1756.04 760.654 1868.98 621.858 1868.98Z" fill="#000000"/>
</svg> 